HIERARCHY
ROOT Hips
{
	OFFSET 0.000000 0.000000 0.000000
	CHANNELS 6 Xposition Yposition Zposition Zrotation Yrotation Xrotation 
	JOINT LowerBack
	{
		OFFSET 0.000000 0.000000 0.000000
		CHANNELS 3 Zrotation Yrotation Xrotation
		JOINT Spine
		{
			OFFSET 0.028270 2.035590 -0.193380
			CHANNELS 3 Zrotation Yrotation Xrotation
			JOINT Spine1
			{
				OFFSET 0.056720 2.048850 -0.042750
				CHANNELS 3 Zrotation Yrotation Xrotation
				JOINT Neck
				{
					OFFSET 0.000000 0.000000 0.000000
					CHANNELS 3 Zrotation Yrotation Xrotation
					JOINT Neck1
					{
						OFFSET -0.054170 1.746240 0.172020
						CHANNELS 3 Zrotation Yrotation Xrotation
						JOINT Head
						{
							OFFSET 0.104070 1.761360 -0.123970
							CHANNELS 3 Zrotation Yrotation Xrotation
							End Site
							{
								OFFSET 0.000000 0.000000 0.000000
							}
						}
					}
				}
				JOINT LeftShoulder
				{
					OFFSET 0.000000 0.000000 0.000000
					CHANNELS 3 Zrotation Yrotation Xrotation
					JOINT LeftArm
					{
						OFFSET 3.362410 1.200890 -0.311210
						CHANNELS 3 Zrotation Yrotation Xrotation
						JOINT LeftForeArm
						{
							OFFSET 4.983000 -0.000000 -0.000000
							CHANNELS 3 Zrotation Yrotation Xrotation
							JOINT LeftHand
							{
								OFFSET 3.483560 -0.000000 -0.000000
								CHANNELS 3 Zrotation Yrotation Xrotation
								JOINT LeftFingerBase
								{
									OFFSET 0.000000 0.000000 0.000000
									CHANNELS 3 Zrotation Yrotation Xrotation
									JOINT LeftHandIndex1
									{
										OFFSET 0.715260 -0.000000 -0.000000
										CHANNELS 3 Zrotation Yrotation Xrotation
										End Site
										{
											OFFSET 0.000000 0.000000 0.000000
										}
									}
								}
								JOINT LThumb
								{
									OFFSET 0.000000 0.000000 0.000000
									CHANNELS 3 Zrotation Yrotation Xrotation
									End Site
									{
										OFFSET 0.000000 0.000000 0.000000
									}
								}
							}
						}
					}
				}
				JOINT RightShoulder
				{
					OFFSET 0.000000 0.000000 0.000000
					CHANNELS 3 Zrotation Yrotation Xrotation
					JOINT RightArm
					{
						OFFSET -3.136600 1.374050 -0.404650
						CHANNELS 3 Zrotation Yrotation Xrotation
						JOINT RightForeArm
						{
							OFFSET -5.241900 -0.000000 -0.000000
							CHANNELS 3 Zrotation Yrotation Xrotation
							JOINT RightHand
							{
								OFFSET -3.444170 -0.000000 -0.000000
								CHANNELS 3 Zrotation Yrotation Xrotation
								JOINT RightFingerBase
								{
									OFFSET 0.000000 0.000000 0.000000
									CHANNELS 3 Zrotation Yrotation Xrotation
									JOINT RightHandIndex1
									{
										OFFSET -0.622530 -0.000000 -0.000000
										CHANNELS 3 Zrotation Yrotation Xrotation
										End Site
										{
											OFFSET 0.000000 0.000000 0.000000
										}
									}
								}
								JOINT RThumb
								{
									OFFSET 0.000000 0.000000 0.000000
									CHANNELS 3 Zrotation Yrotation Xrotation
									End Site
									{
										OFFSET 0.000000 0.000000 0.000000
									}
								}
							}
						}
					}
				}
			}
		}
	}
}
}
MOTION
Frames: 14
Frame Time: 0.008333
2.045120 15.790928 -0.785338 114.270726 -85.285012 -73.502007 0.524340 -2.753932 2.365207 -0.493956 -2.715567 -2.537375 -5.238895 -2.724486 -0.451618 10.837755 -15.319638 -12.793142 -1.294245 0.024877 -1.989469 0.000000 0.000000 0.000000 6.776669 8.265060 3.701593 -68.593082 13.033571 6.269702 -0.693878 -74.735144 -0.015909 2.733871 5.526601 0.132864 -0.093651 0.185488 -0.000000 0.000000 0.000000 0.000000 0.000000 0.000000 0.000000 6.763875 -9.593727 1.146211 72.276067 6.094782 21.202163 179.721972 84.693564 179.954134 -7.076051 3.518164 -0.251486 0.163547 -0.477664 0.000000 0.000000 0.000000 0.000000 0.000000 0.000000 0.000000 
2.044512 15.841174 -0.816579 112.486308 -85.141731 -72.574038 0.353618 -2.724836 2.558644 -0.533671 -2.672531 -2.470989 -5.251855 -2.677061 -0.330125 10.844155 -15.474187 -12.661857 -1.279940 0.022752 -1.927709 0.000000 0.000000 0.000000 6.913089 8.421996 3.648202 -68.504056 13.487703 6.591337 -0.738020 -74.088050 -0.014587 2.425177 5.719802 0.122838 -0.091909 0.173209 -0.000000 0.000000 0.000000 0.000000 0.000000 0.000000 0.000000 6.766007 -9.795152 1.043089 72.261246 6.139458 21.425365 179.715667 84.554528 179.954475 -7.074570 3.503945 -0.250371 0.164548 -0.475384 0.000000 0.000000 0.000000 0.000000 0.000000 0.000000 0.000000 
2.043866 15.891740 -0.846931 110.983228 -84.985886 -71.940488 0.163306 -2.692690 2.765561 -0.576836 -2.625419 -2.402630 -5.261210 -2.625394 -0.211712 10.839242 -15.630524 -12.529442 -1.266547 0.020552 -1.866489 0.000000 0.000000 0.000000 7.052675 8.594461 3.588500 -68.434029 13.962356 6.875090 -0.775646 -73.568941 -0.013380 2.120309 5.900678 0.111714 -0.090041 0.161506 -0.000000 0.000000 0.000000 0.000000 0.000000 0.000000 0.000000 6.756945 -9.994191 0.939811 72.244698 6.189950 21.638021 179.709472 84.412786 179.954815 -7.071260 3.483210 -0.248858 0.165479 -0.473018 0.000000 0.000000 0.000000 0.000000 0.000000 0.000000 0.000000 
2.043188 15.942203 -0.876157 109.690784 -84.823371 -71.515420 -0.038091 -2.660482 2.978436 -0.621188 -2.577751 -2.334165 -5.266547 -2.573154 -0.097650 10.823587 -15.786503 -12.402156 -1.253557 0.018451 -1.808030 0.000000 0.000000 0.000000 7.189607 8.786124 3.525112 -68.380399 14.458536 7.119124 -0.806206 -73.181561 -0.012315 1.828876 6.062318 0.099890 -0.088138 0.150568 -0.000000 0.000000 0.000000 0.000000 0.000000 0.000000 0.000000 6.734966 -10.188055 0.838098 72.224315 6.249877 21.842931 179.703089 84.266447 179.955211 -7.057474 3.457395 -0.246646 0.166190 -0.470631 0.000000 0.000000 0.000000 0.000000 0.000000 0.000000 0.000000 
2.042482 15.992216 -0.903718 108.431128 -84.666878 -71.103838 -0.231700 -2.631488 3.188829 -0.662437 -2.533709 -2.268805 -5.268451 -2.524757 0.006463 10.795325 -15.939756 -12.282879 -1.241069 0.016496 -1.753431 0.000000 0.000000 0.000000 7.311574 8.974886 3.460637 -68.343982 14.999261 7.304888 -0.828532 -72.938509 -0.011360 1.555844 6.194927 0.087670 -0.086135 0.140599 -0.000000 0.000000 0.000000 0.000000 0.000000 0.000000 0.000000 6.696248 -10.373348 0.741864 72.194766 6.314768 22.036502 179.696044 84.110520 179.955701 -7.026616 3.428690 -0.243536 0.166578 -0.468328 0.000000 0.000000 0.000000 0.000000 0.000000 0.000000 0.000000 
2.030860 16.036988 -0.913195 98.572504 -84.799786 -61.868087 0.246394 -2.760162 3.125924 -0.528122 -2.675371 -2.261351 -5.237438 -2.666177 0.131519 10.622107 -16.089436 -12.189222 -1.220574 0.014995 -1.701100 0.000000 0.000000 0.000000 7.159088 9.180657 3.397107 -68.343769 15.581297 7.520395 -0.849183 -72.839824 -0.010585 1.304513 6.290250 0.075569 -0.084833 0.133441 -0.000000 0.000000 0.000000 0.000000 0.000000 0.000000 0.000000 6.439468 -10.644225 0.617164 72.014089 6.284534 22.233294 179.686903 83.873974 179.956539 -6.975801 3.398989 -0.239735 0.166435 -0.464017 0.000000 0.000000 0.000000 0.000000 0.000000 0.000000 0.000000 
2.030647 16.085212 -0.938128 97.493995 -84.636949 -61.559756 0.052591 -2.745997 3.325259 -0.567627 -2.645914 -2.201834 -5.233279 -2.632735 0.217057 10.593041 -16.233344 -12.106682 -1.208583 0.013833 -1.661332 0.000000 0.000000 0.000000 7.260335 9.392548 3.338184 -68.326010 16.162134 7.617664 -0.856387 -72.852938 -0.009795 1.077517 6.337851 0.063754 -0.082792 0.125962 -0.000000 0.000000 0.000000 0.000000 0.000000 0.000000 0.000000 6.394358 -10.807412 0.535196 71.957257 6.364116 22.395707 179.677459 83.681862 179.957220 -6.906559 3.374380 -0.235729 0.166111 -0.462313 0.000000 0.000000 0.000000 0.000000 0.000000 0.000000 0.000000 
2.031064 16.131965 -0.961562 96.210962 -84.482900 -60.987468 -0.127538 -2.740189 3.510613 -0.603032 -2.625602 -2.148039 -5.227962 -2.608757 0.290007 10.570164 -16.369916 -12.047052 -1.196711 0.013165 -1.630394 0.000000 0.000000 0.000000 7.348600 9.603442 3.285349 -68.319640 16.761599 7.666603 -0.856419 -72.983238 -0.009032 0.871917 6.330022 0.052541 -0.080650 0.119951 -0.000000 0.000000 0.000000 0.000000 0.000000 0.000000 0.000000 6.350043 -10.955250 0.463528 71.880649 6.441561 22.531609 179.666240 83.460571 179.957950 -6.823237 3.356046 -0.231724 0.165565 -0.461133 0.000000 0.000000 0.000000 0.000000 0.000000 0.000000 0.000000 
2.032137 16.176919 -0.983622 94.679393 -84.336524 -60.096079 -0.293777 -2.742668 3.682019 -0.634740 -2.614352 -2.100257 -5.222695 -2.594146 0.348637 10.559088 -16.497557 -12.011209 -1.185158 0.013003 -1.608639 0.000000 0.000000 0.000000 7.426876 9.804018 3.240179 -68.326517 17.375480 7.666014 -0.849900 -73.216415 -0.008261 0.685468 6.262227 0.041832 -0.078354 0.115474 -0.000000 0.000000 0.000000 0.000000 0.000000 0.000000 0.000000 6.312507 -11.085570 0.403694 71.781616 6.508512 22.631838 179.653036 83.203892 179.958669 -6.733778 3.346254 -0.228020 0.164953 -0.460612 0.000000 0.000000 0.000000 0.000000 0.000000 0.000000 0.000000 
2.034254 16.219857 -1.004434 92.881991 -84.195374 -58.866012 -0.448279 -2.752257 3.843376 -0.663730 -2.610822 -2.057984 -5.218655 -2.587491 0.391343 10.564516 -16.615251 -11.998402 -1.174159 0.013323 -1.595880 0.000000 0.000000 0.000000 7.500705 9.983731 3.203628 -68.350066 17.997751 7.614886 -0.837619 -73.535226 -0.007469 0.515717 6.133965 0.031925 -0.075853 0.112526 -0.000000 0.000000 0.000000 0.000000 0.000000 0.000000 0.000000 6.286817 -11.196727 0.356768 71.659208 6.556060 22.687841 179.637819 82.907830 179.959306 -6.648096 3.345621 -0.225215 0.164456 -0.460836 0.000000 0.000000 0.000000 0.000000 0.000000 0.000000 0.000000 
2.037700 16.260550 -1.024247 90.835215 -84.054926 -57.313588 -0.595675 -2.767149 3.999835 -0.691594 -2.612980 -2.020454 -5.217096 -2.586671 0.416675 10.589895 -16.721417 -12.005894 -1.164105 0.014052 -1.591323 0.000000 0.000000 0.000000 7.576498 10.130948 3.176184 -68.394067 18.623669 7.512288 -0.820490 -73.920556 -0.006644 0.361493 5.949743 0.022920 -0.073126 0.111017 -0.000000 0.000000 0.000000 0.000000 0.000000 0.000000 0.000000 6.277202 -11.286853 0.323252 71.514590 6.574552 22.691832 179.620743 82.570208 179.959779 -6.577489 3.353996 -0.223308 0.164276 -0.461853 0.000000 0.000000 0.000000 0.000000 0.000000 0.000000 0.000000 
2.042581 16.298741 -1.043305 88.585191 -83.909226 -55.484840 -0.741667 -2.784983 4.156987 -0.720129 -2.618246 -1.986628 -5.218961 -2.589016 0.424084 10.636573 -16.814830 -12.029583 -1.155469 0.015082 -1.593759 0.000000 0.000000 0.000000 7.660132 10.236248 3.157737 -68.461231 19.246883 7.359842 -0.799538 -74.351841 -0.005794 0.222779 5.718797 0.015116 -0.070186 0.110781 -0.000000 0.000000 0.000000 0.000000 0.000000 0.000000 0.000000 6.286784 -11.355111 0.303029 71.349883 6.555276 22.638915 179.602141 82.192144 179.960017 -6.532374 3.370393 -0.222900 0.164593 -0.463657 0.000000 0.000000 0.000000 0.000000 0.000000 0.000000 0.000000 
2.049058 16.334265 -1.061866 86.194207 -83.751815 -53.445904 -0.892481 -2.803423 4.320078 -0.751158 -2.624102 -1.955470 -5.224998 -2.591917 0.413533 10.703907 -16.894554 -12.064554 -1.148691 0.016287 -1.601673 0.000000 0.000000 0.000000 7.756474 10.291915 3.147707 -68.552438 19.861808 7.161512 -0.775758 -74.809926 -0.004957 0.101521 5.454989 0.008712 -0.067092 0.111581 -0.000000 0.000000 0.000000 0.000000 0.000000 0.000000 0.000000 6.316587 -11.401310 0.295365 71.169537 6.491203 22.527386 179.582504 81.777095 179.959970 -6.521112 3.392776 -0.223990 0.165546 -0.466182 0.000000 0.000000 0.000000 0.000000 0.000000 0.000000 0.000000 
2.057202 16.366929 -1.080147 83.740510 -83.576800 -51.278753 -1.054135 -2.820416 4.492887 -0.786328 -2.628384 -1.926003 -5.235611 -2.593138 0.386137 10.789329 -16.959884 -12.105699 -1.144233 0.017533 -1.613449 0.000000 0.000000 0.000000 7.868913 10.294905 3.145123 -68.666474 20.459928 6.925687 -0.750236 -75.275503 -0.004161 0.000921 5.175037 0.003707 -0.063946 0.113135 -0.000000 0.000000 0.000000 0.000000 0.000000 0.000000 0.000000 6.366446 -11.426182 0.298846 70.978608 6.378044 22.359098 179.562423 81.331146 179.959586 -6.548730 3.418956 -0.226677 0.167203 -0.469316 0.000000 0.000000 0.000000 0.000000 0.000000 0.000000 0.000000 
